<svg width="28" height="23" viewBox="0 0 28 23" fill="none" xmlns="http://www.w3.org/2000/svg">
<g id="IMAGE" clip-path="url(#clip0_1_138)">
<path id="Vector" d="M17.5543 16.3969L14.9154 18.992V11.5452C14.9154 10.8682 14.4565 10.4169 13.7681 10.4169C13.0797 10.4169 12.6207 10.8682 12.6207 11.5452V18.992L9.98187 16.3969C9.5229 15.9456 8.83453 15.9456 8.37559 16.3969C7.91669 16.8482 7.91665 17.5252 8.37559 17.9765L12.965 22.4897C13.0797 22.6025 13.1944 22.7153 13.3092 22.7153C13.4239 22.8282 13.6534 22.8282 13.7681 22.8282C13.8829 22.8282 14.1123 22.8282 14.2271 22.7153C14.3418 22.6025 14.4565 22.6025 14.5712 22.4897L19.1606 17.9765C19.6196 17.5252 19.6196 16.8482 19.1606 16.3969C18.7017 15.9456 18.0133 15.9456 17.5544 16.3969H17.5543ZM26.2741 9.85277C25.012 8.16033 22.9468 7.03203 20.6521 7.03203H20.0784C18.3574 2.06755 12.965 -0.753188 7.80192 0.600763C5.04833 1.27774 2.86837 2.85734 1.37684 5.22676C3.59043e-05 7.59618 -0.458908 10.3041 0.229495 12.8991C0.68844 14.4788 1.37684 15.9455 2.52416 17.0738C2.98311 17.5252 3.67152 17.638 4.13043 17.1867C4.58933 16.7354 4.7041 16.0584 4.24516 15.6071C3.44202 14.7044 2.75362 13.5761 2.52416 12.335C1.9505 10.3041 2.2947 8.16033 3.44202 6.35509C4.58933 4.54984 6.31038 3.19586 8.37559 2.74455C12.6208 1.61625 17.0954 4.21136 18.128 8.38602C18.2427 8.83734 18.7016 9.28866 19.2753 9.28866H20.6521C22.1437 9.28866 23.5205 9.96563 24.4384 11.2067C25.1268 12.2222 25.471 13.3505 25.2415 14.5916C25.012 15.8327 24.3236 16.8482 23.4058 17.5252C22.8321 17.8637 22.7174 18.5406 23.1763 19.1048C23.4058 19.4433 23.75 19.5561 24.0942 19.5561C24.3236 19.5561 24.5531 19.4433 24.7826 19.3305C26.2741 18.315 27.3067 16.7354 27.6509 14.9301C27.9951 13.1248 27.3067 11.4324 26.2741 9.85277H26.2741Z" fill="white"/>
</g>
<defs>
<clipPath id="clip0_1_138">
<rect width="28" height="23" fill="white"/>
</clipPath>
</defs>
</svg>
