<svg width="28" height="28" viewBox="0 0 28 28" fill="none" xmlns="http://www.w3.org/2000/svg">
<g id="IMAGE" clip-path="url(#clip0_1_147)">
<path id="Vector" d="M0.111436 26.644C-0.148627 25.8452 0.0835725 25.1951 0.808033 24.6935C3.01857 23.2446 5.72138 22.1672 8.91644 21.4613C7.35608 19.5108 6.25078 17.1424 5.60064 14.356C5.41488 13.3343 5.31271 12.2012 5.29414 10.9566C5.27554 9.712 5.48918 8.3281 5.93501 6.80486C6.38081 5.28163 6.99384 3.9999 7.77401 2.95965C9.33441 1.00917 11.4056 0.0339355 13.9877 0.0339355C16.5697 0.0339355 18.6317 1.00917 20.1735 2.95965C20.9722 4.01846 21.5945 5.30023 22.0404 6.80486C22.4862 8.30953 22.6905 9.69343 22.6534 10.9566C22.6162 12.2198 22.514 13.3529 22.3469 14.356C21.6967 17.1424 20.5914 19.5108 19.031 21.4613C22.2261 22.1672 24.9289 23.2446 27.1395 24.6935C27.8639 25.1951 28.1054 25.8545 27.8639 26.6719C27.6224 27.4892 27.0559 27.8979 26.1642 27.8979H1.78327C1.39318 27.8979 1.04023 27.7771 0.724444 27.5357C0.40865 27.2942 0.204316 26.9969 0.111436 26.644ZM1.78327 26.1703H26.1642C24.1394 24.8143 21.6595 23.8112 18.7245 23.161L16.5233 22.7152C15.6874 23.2725 14.8422 23.5511 13.9877 23.5511C13.1332 23.5511 12.2787 23.2725 11.4242 22.7152L9.25081 23.161C6.27864 23.8112 3.78948 24.8143 1.78327 26.1703ZM7.16101 9.39623C6.91951 11.3095 7.06814 13.2414 7.60684 15.1919C8.14554 17.1424 9.03718 18.87 10.2818 20.3746L10.5604 20.7647C11.6007 21.9722 12.7431 22.5759 13.9877 22.5759C15.2323 22.5759 16.3747 21.9722 17.4149 20.7647L17.6657 20.3746C18.9103 18.8514 19.8019 17.1238 20.3407 15.1919C20.8794 13.26 21.028 11.3281 20.7865 9.39623C20.5264 7.29713 19.8205 5.50456 18.6688 4.01846C17.5171 2.5324 15.9567 1.78936 13.9877 1.78936C12.0186 1.78936 10.4582 2.5324 9.30654 4.01846C8.15484 5.50456 7.43964 7.29713 7.16101 9.39623Z" fill="white"/>
</g>
<defs>
<clipPath id="clip0_1_147">
<rect width="28" height="28" fill="white"/>
</clipPath>
</defs>
</svg>
