<?xml version="1.0" encoding="UTF-8"?>
<svg xmlns="http://www.w3.org/2000/svg" xmlns:xlink="http://www.w3.org/1999/xlink" width="17px" height="17px" viewBox="0 0 17 17" version="1.1">
<g id="surface1">
<path style=" stroke:none;fill-rule:nonzero;fill:rgb(0%,0%,0%);fill-opacity:1;" d="M 12.8125 0.128906 L 12.8125 2.804688 L 11.226562 2.804688 C 10.644531 2.804688 10.25 2.925781 10.042969 3.171875 C 9.835938 3.414062 9.734375 3.777344 9.734375 4.261719 L 9.734375 6.195312 L 12.722656 6.195312 L 12.320312 9.199219 L 9.734375 9.199219 L 9.734375 16.925781 L 6.621094 16.925781 L 6.621094 9.199219 L 4.03125 9.199219 L 4.03125 6.195312 L 6.621094 6.195312 L 6.621094 3.972656 C 6.621094 2.707031 6.972656 1.730469 7.675781 1.039062 C 8.378906 0.347656 9.320312 0 10.5 0 C 11.496094 0 12.265625 0.0429688 12.8125 0.128906 Z M 12.8125 0.128906 "/>
</g>
</svg>
