<svg width="15" height="23" viewBox="0 0 15 23" fill="none" xmlns="http://www.w3.org/2000/svg">
<g id="IMAGE" clip-path="url(#clip0_1_665)">
<path id="Vector" d="M12.4485 13.9342C11.868 13.8341 11.2875 13.6338 10.7715 13.3334C10.062 12.9329 9.28798 13.2333 8.70748 14.0344L8.25598 14.7354C7.09498 13.5337 6.06298 12.0317 5.28898 10.1291L5.74048 9.42814C6.25648 8.62705 6.44998 7.32528 6.19198 6.22378C5.99848 5.42272 5.8695 4.52149 5.80498 3.62027C5.676 2.11822 4.83748 1.01673 3.87 1.01673H1.935C1.8705 1.01673 1.806 1.01673 1.7415 1.01673C1.2255 1.11687 0.773998 1.5174 0.451504 2.11822C0.12901 2.71903 0 3.5201 0 4.32122C0.1935 7.52555 0.967498 10.7299 2.06398 13.4336C3.096 15.937 4.51498 18.14 6.12748 19.7422C7.86898 21.5446 9.93296 22.6461 11.997 22.9465C12.0615 22.9465 12.126 22.9465 12.1905 22.9465C12.7065 22.9465 13.2225 22.6461 13.545 22.0453C13.8675 21.4445 14.1255 20.7435 14.1255 19.9424V16.9384C14.1255 15.4363 13.416 14.1345 12.4485 13.9343L12.4485 13.9342ZM12.8355 16.9383V19.9424C12.8355 20.2428 12.771 20.4431 12.642 20.6434C12.513 20.8437 12.384 20.9438 12.126 20.9438C10.2555 20.6434 8.44948 19.642 6.83698 18.0399C5.35348 16.638 4.12798 14.6352 3.16048 12.3321C2.12848 9.82869 1.48349 7.0249 1.28999 4.12092C1.28999 3.82051 1.3545 3.62027 1.41899 3.41997C1.54798 3.21969 1.74148 3.01942 1.93498 3.01942H3.86998C4.19246 3.01942 4.45048 3.41997 4.51498 3.92065C4.57948 4.92201 4.77298 6.02351 5.03098 6.92473C5.09548 7.32528 5.03098 7.7258 4.90198 8.0262L4.06348 9.22784C3.86998 9.52825 3.80548 10.0289 3.93448 10.4295C4.90198 13.1332 6.32098 15.3362 8.06248 16.8382C8.32048 17.0385 8.64298 17.0385 8.83648 16.6379L9.67498 15.3362C9.86848 15.0357 10.1265 14.9356 10.3845 15.1359C11.0295 15.5365 11.6745 15.7367 12.3195 15.937C12.5775 16.0371 12.8355 16.4377 12.8355 16.9383ZM9.09446 0.0153372C8.77198 -0.0848068 8.44946 0.315745 8.38498 0.916559C8.32046 1.41723 8.57848 1.91793 8.96546 2.01805C11.352 2.4186 13.2225 5.32253 13.545 9.1277C13.6095 9.62838 13.8674 10.0289 14.19 10.0289H14.2545C14.577 9.92879 14.835 9.42811 14.835 8.92743C14.448 4.22106 12.0615 0.516009 9.09448 0.0153372H9.09446ZM10.9005 9.12773C10.965 9.62838 11.223 9.92879 11.5455 9.92879C11.61 9.92879 11.61 9.92879 11.6745 9.92879C11.997 9.82866 12.255 9.32798 12.1905 8.72719C11.868 6.32392 10.707 4.42133 9.15896 4.02078C8.83648 3.92065 8.44948 4.22106 8.38498 4.82187C8.32046 5.42269 8.51396 5.92334 8.90096 6.02351C9.93296 6.32392 10.707 7.52555 10.9005 9.12773Z" fill="#F4AB00"/>
</g>
<defs>
<clipPath id="clip0_1_665">
<rect width="15" height="23" fill="white"/>
</clipPath>
</defs>
</svg>
