<?xml version="1.0" encoding="UTF-8"?>
<svg xmlns="http://www.w3.org/2000/svg" xmlns:xlink="http://www.w3.org/1999/xlink" width="20px" height="23px" viewBox="0 0 20 23" version="1.1">
<g id="surface1">
<path style=" stroke:none;fill-rule:nonzero;fill:rgb(95.686275%,67.058824%,0%);fill-opacity:1;" d="M 0 8.609375 C 0 6.230469 0.964844 4.199219 2.894531 2.523438 C 4.820312 0.84375 7.175781 0.0117188 9.949219 0.0273438 C 12.730469 0.0429688 15.082031 0.875 17.011719 2.523438 C 18.9375 4.171875 19.902344 6.199219 19.902344 8.609375 C 19.902344 9.800781 19.65625 11.023438 19.160156 12.273438 C 18.664062 13.523438 17.910156 14.789062 16.902344 16.070312 C 15.894531 17.355469 15.003906 18.429688 14.222656 19.300781 C 13.445312 20.167969 12.472656 21.183594 11.304688 22.34375 C 10.949219 22.726562 10.519531 22.914062 10.003906 22.914062 L 9.898438 22.914062 C 9.386719 22.914062 8.953125 22.726562 8.597656 22.34375 C 7.429688 21.167969 6.457031 20.152344 5.679688 19.300781 C 4.902344 18.445312 4.007812 17.371094 2.996094 16.070312 C 1.988281 14.773438 1.238281 13.507812 0.742188 12.273438 C 0.246094 11.035156 0 9.816406 0 8.609375 Z M 1.671875 8.609375 C 1.671875 9.710938 1.917969 10.855469 2.414062 12.042969 C 2.910156 13.234375 3.660156 14.460938 4.667969 15.730469 C 5.679688 16.996094 6.519531 17.972656 7.191406 18.660156 C 7.863281 19.34375 8.746094 20.261719 9.847656 21.40625 L 9.898438 21.40625 C 9.933594 21.4375 9.949219 21.464844 9.949219 21.496094 L 10.058594 21.40625 C 11.152344 20.292969 12.039062 19.375 12.710938 18.660156 C 13.382812 17.941406 14.214844 16.964844 15.207031 15.730469 C 16.195312 14.492188 16.957031 13.265625 17.488281 12.042969 C 18.019531 10.824219 18.277344 9.679688 18.257812 8.609375 C 18.257812 6.640625 17.441406 4.957031 15.816406 3.550781 C 14.1875 2.148438 12.234375 1.453125 9.949219 1.46875 C 7.667969 1.484375 5.714844 2.179688 4.085938 3.550781 C 2.457031 4.925781 1.652344 6.613281 1.671875 8.609375 Z M 4.988281 8.425781 C 4.988281 7.238281 5.464844 6.222656 6.421875 5.382812 C 7.378906 4.542969 8.554688 4.132812 9.949219 4.148438 C 11.347656 4.164062 12.527344 4.574219 13.480469 5.382812 C 14.433594 6.191406 14.921875 7.207031 14.941406 8.425781 C 14.957031 9.648438 14.472656 10.664062 13.480469 11.472656 C 12.488281 12.28125 11.3125 12.699219 9.949219 12.730469 C 8.589844 12.761719 7.410156 12.339844 6.421875 11.472656 C 5.433594 10.601562 4.953125 9.585938 4.988281 8.425781 Z M 5.8125 8.425781 C 5.8125 9.417969 6.21875 10.265625 7.03125 10.96875 C 7.847656 11.671875 8.820312 12.011719 9.949219 12 C 11.082031 11.984375 12.058594 11.640625 12.871094 10.96875 C 13.683594 10.296875 14.089844 9.449219 14.089844 8.425781 C 14.089844 7.40625 13.683594 6.566406 12.871094 5.910156 C 12.058594 5.253906 11.082031 4.902344 9.949219 4.855469 C 8.820312 4.8125 7.847656 5.164062 7.03125 5.910156 C 6.21875 6.65625 5.8125 7.496094 5.8125 8.425781 Z M 5.8125 8.425781 "/>
</g>
</svg>
