<svg width="15" height="23" viewBox="0 0 15 23" fill="none" xmlns="http://www.w3.org/2000/svg">
<g id="IMAGE" clip-path="url(#clip0_1_659)">
<path id="Vector" d="M0 8.61065C0 6.23026 0.723136 4.20084 2.16941 2.52237C3.61567 0.843899 5.3804 0.012291 7.46355 0.02755C9.54671 0.0428088 11.3114 0.874415 12.7577 2.52237C14.204 4.17031 14.9271 6.19973 14.9271 8.61065C14.9271 9.80082 14.7414 11.0215 14.3698 12.2727C13.9983 13.524 13.4344 14.7905 12.6781 16.0722C11.9218 17.3539 11.2517 18.4297 10.6679 19.2994C10.0841 20.1692 9.35433 21.1839 8.47859 22.3436C8.21324 22.725 7.88814 22.9158 7.50336 22.9158H7.42376C7.03895 22.9158 6.71388 22.725 6.44852 22.3436C5.57279 21.1687 4.84302 20.1539 4.25921 19.2994C3.67538 18.445 3.00533 17.3692 2.24902 16.0722C1.49271 14.7752 0.928798 13.5087 0.557279 12.2727C0.18576 11.0368 0 9.8161 0 8.61065ZM1.25388 8.61065C1.25388 9.70929 1.43964 10.8537 1.81116 12.0439C2.18268 13.2341 2.7466 14.4624 3.5029 15.7289C4.25921 16.9954 4.88945 17.9719 5.39367 18.6586C5.89786 19.3452 6.56129 20.2608 7.38395 21.4052H7.42376C7.45029 21.4357 7.46355 21.4662 7.46355 21.4967L7.54317 21.4052C8.36581 20.2913 9.02924 19.3758 9.53345 18.6586C10.0376 17.9414 10.6613 16.9649 11.4043 15.7289C12.1474 14.4929 12.7179 13.2646 13.116 12.0439C13.514 10.8232 13.7064 9.67876 13.6931 8.61065C13.6931 6.64226 13.0828 4.95615 11.8621 3.55235C10.6414 2.14853 9.17519 1.45425 7.46355 1.46951C5.7519 1.48477 4.28574 2.17904 3.06502 3.55235C1.84433 4.92564 1.24061 6.61174 1.25388 8.61065ZM3.74174 8.42753C3.74174 7.23734 4.09998 6.22262 4.81648 5.3834C5.53298 4.54417 6.41533 4.13217 7.46355 4.14742C8.51176 4.1627 9.39412 4.57467 10.1106 5.3834C10.8271 6.19212 11.192 7.20683 11.2053 8.42753C11.2185 9.64823 10.8537 10.663 10.1106 11.4717C9.36759 12.2804 8.48524 12.7 7.46355 12.7305C6.44188 12.761 5.55952 12.3414 4.81648 11.4717C4.07345 10.6019 3.71519 9.5872 3.74174 8.42753ZM4.35871 8.42753C4.35871 9.41935 4.6639 10.2662 5.27424 10.9681C5.8846 11.67 6.61438 12.0134 7.46355 11.9981C8.31274 11.9828 9.04252 11.6395 9.65286 10.9681C10.2632 10.2967 10.5684 9.44988 10.5684 8.42753C10.5684 7.40518 10.2632 6.56595 9.65286 5.90982C9.04252 5.25369 8.31274 4.90275 7.46355 4.85697C6.61438 4.81119 5.8846 5.16213 5.27424 5.90982C4.6639 6.65752 4.35871 7.49674 4.35871 8.42753Z" fill="#F4AB00"/>
</g>
<defs>
<clipPath id="clip0_1_659">
<rect width="15" height="23" fill="white"/>
</clipPath>
</defs>
</svg>
