<svg width="15" height="23" viewBox="0 0 15 23" fill="none" xmlns="http://www.w3.org/2000/svg">
<g id="IMAGE" clip-path="url(#clip0_1_668)">
<path id="Vector" d="M12.8192 0.106445H2.10232C0.963649 0.106445 0.0928955 1.75949 0.0928955 3.92114V19.18C0.0928955 21.3416 0.963649 22.9947 2.10232 22.9947H12.8192C13.9579 22.9947 14.8286 21.3416 14.8286 19.18V3.92114C14.8286 1.75949 13.9579 0.106445 12.8192 0.106445ZM2.10234 2.64957H12.8192C13.0872 2.64957 13.2881 2.90388 13.4221 3.41252L7.4608 11.2962L1.49952 3.41252C1.63348 2.90388 1.83442 2.64957 2.10236 2.64957H2.10234ZM12.8192 20.4516H2.10232C1.70043 20.4516 1.4325 19.9429 1.4325 19.18V6.33713L7.05887 13.8394C7.19284 13.9666 7.3268 14.0937 7.46076 14.0937C7.59472 14.0937 7.72868 13.9665 7.86264 13.8394L13.489 6.33713V19.18C13.489 19.9429 13.2211 20.4516 12.8192 20.4516H12.8192Z" fill="#F4AB00"/>
</g>
<defs>
<clipPath id="clip0_1_668">
<rect width="15" height="23" fill="white"/>
</clipPath>
</defs>
</svg>
