<?xml version="1.0" encoding="UTF-8"?>
<svg xmlns="http://www.w3.org/2000/svg" xmlns:xlink="http://www.w3.org/1999/xlink" width="30px" height="23px" viewBox="0 0 30 23" version="1.1">
<g id="surface1">
<path style=" stroke:none;fill-rule:nonzero;fill:rgb(95.686275%,67.058824%,0%);fill-opacity:1;" d="M 25.636719 0.105469 L 4.203125 0.105469 C 1.925781 0.105469 0.1875 1.757812 0.1875 3.921875 L 0.1875 19.179688 C 0.1875 21.339844 1.925781 22.996094 4.203125 22.996094 L 25.636719 22.996094 C 27.914062 22.996094 29.65625 21.339844 29.65625 19.179688 L 29.65625 3.921875 C 29.65625 1.757812 27.914062 0.105469 25.636719 0.105469 Z M 4.203125 2.648438 L 25.636719 2.648438 C 26.175781 2.648438 26.578125 2.902344 26.84375 3.414062 L 14.921875 11.296875 L 3 3.414062 C 3.265625 2.902344 3.667969 2.648438 4.203125 2.648438 Z M 25.636719 20.453125 L 4.203125 20.453125 C 3.402344 20.453125 2.863281 19.941406 2.863281 19.179688 L 2.863281 6.335938 L 14.117188 13.839844 C 14.386719 13.964844 14.652344 14.09375 14.921875 14.09375 C 15.1875 14.09375 15.457031 13.964844 15.726562 13.839844 L 26.976562 6.335938 L 26.976562 19.179688 C 26.976562 19.941406 26.441406 20.453125 25.636719 20.453125 Z M 25.636719 20.453125 "/>
</g>
</svg>
