<?xml version="1.0" encoding="UTF-8"?>
<svg xmlns="http://www.w3.org/2000/svg" xmlns:xlink="http://www.w3.org/1999/xlink" width="20px" height="23px" viewBox="0 0 20 23" version="1.1">
<g id="surface1">
<path style=" stroke:none;fill-rule:nonzero;fill:rgb(95.686275%,67.058824%,0%);fill-opacity:1;" d="M 16.597656 13.933594 C 15.824219 13.835938 15.050781 13.632812 14.363281 13.332031 C 13.417969 12.933594 12.382812 13.234375 11.609375 14.035156 L 11.007812 14.734375 C 9.460938 13.535156 8.082031 12.03125 7.050781 10.128906 L 7.652344 9.429688 C 8.339844 8.628906 8.597656 7.324219 8.253906 6.222656 C 7.996094 5.421875 7.824219 4.523438 7.738281 3.621094 C 7.566406 2.117188 6.449219 1.015625 5.160156 1.015625 L 2.582031 1.015625 C 2.496094 1.015625 2.410156 1.015625 2.324219 1.015625 C 1.632812 1.117188 1.03125 1.515625 0.601562 2.117188 C 0.171875 2.71875 0 3.519531 0 4.320312 C 0.257812 7.527344 1.289062 10.730469 2.753906 13.433594 C 4.128906 15.9375 6.019531 18.140625 8.167969 19.742188 C 10.492188 21.542969 13.246094 22.644531 15.996094 22.945312 C 16.082031 22.945312 16.167969 22.945312 16.253906 22.945312 C 16.941406 22.945312 17.628906 22.644531 18.058594 22.046875 C 18.488281 21.445312 18.832031 20.742188 18.832031 19.941406 L 18.832031 16.9375 C 18.832031 15.4375 17.886719 14.132812 16.597656 13.933594 Z M 17.113281 16.9375 L 17.113281 19.941406 C 17.113281 20.242188 17.027344 20.441406 16.855469 20.644531 C 16.683594 20.84375 16.511719 20.945312 16.167969 20.945312 C 13.675781 20.644531 11.265625 19.640625 9.117188 18.039062 C 7.136719 16.636719 5.503906 14.636719 4.214844 12.332031 C 2.839844 9.828125 1.980469 7.023438 1.71875 4.121094 C 1.71875 3.820312 1.808594 3.621094 1.894531 3.421875 C 2.066406 3.21875 2.324219 3.019531 2.582031 3.019531 L 5.160156 3.019531 C 5.589844 3.019531 5.933594 3.421875 6.019531 3.921875 C 6.105469 4.921875 6.363281 6.023438 6.707031 6.925781 C 6.792969 7.324219 6.707031 7.726562 6.535156 8.027344 L 5.417969 9.226562 C 5.160156 9.527344 5.074219 10.027344 5.246094 10.429688 C 6.535156 13.132812 8.425781 15.335938 10.75 16.839844 C 11.09375 17.039062 11.523438 17.039062 11.78125 16.636719 L 12.902344 15.335938 C 13.160156 15.035156 13.503906 14.9375 13.847656 15.136719 C 14.707031 15.535156 15.566406 15.738281 16.425781 15.9375 C 16.769531 16.035156 17.113281 16.4375 17.113281 16.9375 Z M 12.125 0.015625 C 11.695312 -0.0859375 11.265625 0.316406 11.179688 0.917969 C 11.09375 1.417969 11.4375 1.917969 11.953125 2.019531 C 15.136719 2.417969 17.628906 5.324219 18.058594 9.128906 C 18.144531 9.628906 18.488281 10.027344 18.917969 10.027344 L 19.003906 10.027344 C 19.433594 9.929688 19.78125 9.429688 19.78125 8.925781 C 19.261719 4.222656 16.082031 0.515625 12.125 0.015625 Z M 14.535156 9.128906 C 14.621094 9.628906 14.964844 9.929688 15.394531 9.929688 C 15.480469 9.929688 15.480469 9.929688 15.566406 9.929688 C 15.996094 9.828125 16.339844 9.328125 16.253906 8.726562 C 15.824219 6.324219 14.277344 4.421875 12.210938 4.019531 C 11.78125 3.921875 11.265625 4.222656 11.179688 4.820312 C 11.09375 5.421875 11.351562 5.921875 11.867188 6.023438 C 13.246094 6.324219 14.277344 7.527344 14.535156 9.128906 Z M 14.535156 9.128906 "/>
</g>
</svg>
