<?xml version="1.0" encoding="UTF-8"?>
<svg xmlns="http://www.w3.org/2000/svg" xmlns:xlink="http://www.w3.org/1999/xlink" width="15px" height="15px" viewBox="0 0 15 15" version="1.1">
<g id="surface1">
<path style=" stroke:none;fill-rule:nonzero;fill:rgb(0%,0%,0%);fill-opacity:1;" d="M 1.730469 5.355469 C 1.730469 4.710938 1.84375 4.105469 2.070312 3.535156 C 2.292969 2.972656 2.605469 2.472656 3 2.042969 C 3.398438 1.613281 3.851562 1.246094 4.367188 0.933594 C 4.882812 0.625 5.433594 0.386719 6.023438 0.226562 C 6.613281 0.0664062 7.21875 -0.0078125 7.839844 0 C 8.78125 0 9.660156 0.199219 10.476562 0.59375 C 11.289062 0.992188 11.949219 1.570312 12.453125 2.332031 C 12.957031 3.09375 13.207031 3.949219 13.207031 4.902344 C 13.207031 5.480469 13.15625 6.042969 13.046875 6.589844 C 12.941406 7.140625 12.757812 7.667969 12.5 8.183594 C 12.242188 8.699219 11.945312 9.144531 11.601562 9.519531 C 11.257812 9.894531 10.828125 10.203125 10.316406 10.449219 C 9.800781 10.695312 9.234375 10.808594 8.609375 10.785156 C 8.203125 10.785156 7.800781 10.691406 7.40625 10.496094 C 7.007812 10.308594 6.71875 10.042969 6.539062 9.710938 C 6.484375 9.945312 6.402344 10.285156 6.296875 10.722656 C 6.1875 11.160156 6.113281 11.445312 6.070312 11.574219 C 6.027344 11.703125 5.96875 11.917969 5.894531 12.21875 C 5.820312 12.519531 5.738281 12.726562 5.652344 12.84375 C 5.566406 12.964844 5.476562 13.152344 5.378906 13.410156 C 5.285156 13.664062 5.144531 13.902344 4.960938 14.113281 C 4.78125 14.328125 4.59375 14.585938 4.398438 14.886719 L 4.285156 14.933594 L 4.207031 14.839844 C 4.109375 13.894531 4.0625 13.332031 4.0625 13.152344 C 4.0625 12.605469 4.125 11.988281 4.253906 11.300781 C 4.382812 10.617188 4.582031 9.753906 4.847656 8.714844 C 5.117188 7.671875 5.273438 7.070312 5.316406 6.894531 C 5.121094 6.511719 5.027344 6.007812 5.027344 5.386719 C 5.027344 4.882812 5.183594 4.414062 5.492188 3.988281 C 5.804688 3.558594 6.199219 3.339844 6.683594 3.328125 C 7.046875 3.328125 7.332031 3.449219 7.535156 3.699219 C 7.738281 3.945312 7.839844 4.25 7.839844 4.613281 C 7.839844 5.011719 7.710938 5.578125 7.453125 6.320312 C 7.195312 7.058594 7.0625 7.621094 7.050781 8.007812 C 7.050781 8.382812 7.1875 8.691406 7.453125 8.9375 C 7.722656 9.183594 8.046875 9.308594 8.433594 9.308594 C 8.765625 9.308594 9.070312 9.234375 9.351562 9.085938 C 9.628906 8.933594 9.863281 8.730469 10.058594 8.472656 C 10.25 8.214844 10.417969 7.929688 10.554688 7.621094 C 10.695312 7.308594 10.808594 6.984375 10.894531 6.640625 C 10.980469 6.296875 11.039062 5.964844 11.070312 5.644531 C 11.101562 5.324219 11.125 5.019531 11.136719 4.742188 C 11.136719 3.714844 10.808594 2.910156 10.15625 2.332031 C 9.5 1.753906 8.644531 1.464844 7.582031 1.464844 C 6.394531 1.464844 5.394531 1.847656 4.59375 2.621094 C 3.789062 3.394531 3.386719 4.375 3.386719 5.5625 C 3.386719 5.832031 3.425781 6.089844 3.5 6.332031 C 3.574219 6.582031 3.65625 6.773438 3.742188 6.914062 C 3.824219 7.050781 3.90625 7.191406 3.980469 7.332031 C 4.054688 7.472656 4.09375 7.5625 4.09375 7.605469 C 4.09375 7.765625 4.050781 7.980469 3.964844 8.246094 C 3.878906 8.515625 3.765625 8.648438 3.628906 8.648438 C 3.617188 8.648438 3.570312 8.644531 3.484375 8.632812 C 3.171875 8.535156 2.898438 8.371094 2.664062 8.136719 C 2.425781 7.898438 2.246094 7.613281 2.117188 7.285156 C 1.988281 6.953125 1.890625 6.628906 1.828125 6.320312 C 1.761719 6.007812 1.730469 5.6875 1.730469 5.355469 Z M 1.730469 5.355469 "/>
</g>
</svg>
