<svg width="12" height="12" viewBox="0 0 12 12" fill="none" xmlns="http://www.w3.org/2000/svg">
<g id="IMAGE" clip-path="url(#clip0_1_28)">
<path id="Vector" d="M10.4697 7.05304C9.98744 6.99876 9.50518 6.8902 9.07651 6.72735C8.48708 6.51023 7.84407 6.67307 7.36181 7.10732L6.98671 7.48728C6.02219 6.83592 5.16484 6.02171 4.52182 4.99038L4.89691 4.61041C5.32559 4.17617 5.48635 3.47052 5.27201 2.87345C5.11125 2.43921 5.0041 1.95068 4.9505 1.46216C4.84335 0.647955 4.14673 0.0508747 3.34298 0.0508747H1.73544C1.68185 0.0508747 1.62827 0.0508747 1.57468 0.0508747C1.14601 0.105159 0.770913 0.322274 0.502995 0.647955C0.235076 0.973638 0.127899 1.40788 0.127899 1.84212C0.288653 3.5791 0.931667 5.31608 1.84259 6.78165C2.69996 8.13866 3.87881 9.33282 5.21842 10.2013C6.66521 11.1784 8.3799 11.7754 10.0946 11.9383C10.1482 11.9383 10.2018 11.9383 10.2554 11.9383C10.684 11.9383 11.1127 11.7754 11.3807 11.4498C11.6486 11.1241 11.8629 10.7441 11.8629 10.3099V8.68145C11.8629 7.86726 11.2735 7.1616 10.4697 7.05305L10.4697 7.05304ZM10.7912 8.68145V10.3099C10.7912 10.4727 10.7376 10.5813 10.6305 10.6898C10.5233 10.7984 10.4161 10.8527 10.2018 10.8527C8.64784 10.6898 7.14747 10.147 5.80785 9.27854C4.57541 8.51861 3.5573 7.433 2.75353 6.18455C1.89618 4.82754 1.36034 3.3077 1.19959 1.73356C1.19959 1.57072 1.25317 1.46216 1.30675 1.35359C1.41391 1.24504 1.57467 1.13647 1.73542 1.13647H3.34296C3.61087 1.13647 3.82522 1.35359 3.87881 1.62499C3.93239 2.16779 4.09315 2.76488 4.30748 3.2534C4.36107 3.47052 4.30748 3.68765 4.20031 3.85049L3.50371 4.50185C3.34296 4.66469 3.28938 4.93608 3.39655 5.15322C4.20031 6.61878 5.37918 7.81295 6.82596 8.62716C7.0403 8.73572 7.30822 8.73572 7.46898 8.51861L8.16558 7.81295C8.32633 7.65011 8.54067 7.59583 8.75501 7.7044C9.29085 7.92153 9.82668 8.03009 10.3625 8.13863C10.5769 8.19293 10.7912 8.41004 10.7912 8.68145Z" fill="white"/>
</g>
<defs>
<clipPath id="clip0_1_28">
<rect width="12" height="12" fill="white"/>
</clipPath>
</defs>
</svg>
