<?xml version="1.0" standalone="no"?>
<!DOCTYPE svg PUBLIC "-//W3C//DTD SVG 20010904//EN"
 "http://www.w3.org/TR/2001/REC-SVG-20010904/DTD/svg10.dtd">
<svg version="1.0" xmlns="http://www.w3.org/2000/svg"
 width="86.000000pt" height="86.000000pt" viewBox="0 0 86.000000 86.000000"
 preserveAspectRatio="xMidYMid meet">

<g transform="translate(0.000000,86.000000) scale(0.100000,-0.100000)"
fill="#000000" stroke="none">
<path d="M825 755 c-16 -7 -75 -32 -130 -55 -55 -24 -120 -51 -145 -62 -71
-31 -80 -35 -185 -78 -109 -45 -154 -64 -200 -85 -16 -8 -49 -22 -72 -32 -42
-18 -58 -43 -27 -43 9 0 30 -6 47 -14 18 -8 48 -21 67 -29 28 -12 39 -24 53
-63 10 -27 27 -66 37 -87 l18 -39 43 51 c24 28 50 51 57 51 7 0 37 -9 65 -21
29 -12 70 -28 92 -37 22 -8 59 -24 82 -34 23 -10 44 -18 46 -18 4 0 22 42 49
110 5 13 23 64 39 112 16 49 33 96 39 106 27 49 61 182 58 230 l-3 51 -30 -14z
m5 -80 c0 -6 -89 -253 -101 -280 -11 -25 -37 -99 -50 -142 -16 -52 -17 -52
-134 -3 -98 40 -125 53 -125 59 0 3 24 27 53 53 28 26 75 68 104 95 28 26 88
82 133 123 46 41 88 80 94 87 11 13 26 17 26 8z m-246 -77 c-28 -18 -59 -38
-70 -45 -10 -7 -43 -27 -73 -45 -29 -18 -68 -42 -85 -53 -126 -79 -122 -77
-165 -64 -41 12 -76 39 -52 39 7 0 31 8 54 19 23 10 56 24 72 31 17 6 100 42
185 80 173 76 209 86 134 38z m16 -65 c-40 -38 -124 -118 -187 -178 -69 -67
-117 -107 -122 -100 -9 12 -34 96 -29 100 2 1 25 15 51 31 27 16 59 36 72 44
13 8 61 37 107 65 45 27 85 53 86 57 2 4 9 8 15 8 7 0 23 9 37 20 55 43 38 16
-30 -47z"/>
</g>
</svg>
