<?xml version="1.0" standalone="no"?>
<!DOCTYPE svg PUBLIC "-//W3C//DTD SVG 20010904//EN"
 "http://www.w3.org/TR/2001/REC-SVG-20010904/DTD/svg10.dtd">
<svg version="1.0" xmlns="http://www.w3.org/2000/svg"
 width="86.000000pt" height="86.000000pt" viewBox="0 0 86.000000 86.000000"
 preserveAspectRatio="xMidYMid meet">

<g transform="translate(0.000000,86.000000) scale(0.100000,-0.100000)"
fill="#000000" stroke="none">
<path d="M689 836 c-110 -25 -182 -75 -284 -197 -28 -32 -37 -36 -94 -42 -79
-7 -148 -50 -192 -120 -31 -50 -48 -107 -33 -107 5 0 24 -14 43 -32 l33 -31
34 39 33 39 87 -86 86 -87 -38 -36 -39 -36 28 -25 c15 -13 27 -29 27 -34 0
-15 44 -24 72 -15 100 31 178 145 178 260 0 38 4 45 54 84 62 50 114 116 147
186 18 39 22 68 23 141 1 50 -1 94 -4 96 -13 13 -110 15 -161 3z m122 -26 c15
-9 19 -22 19 -64 0 -29 -2 -55 -5 -58 -6 -6 -115 104 -115 115 0 16 74 21 101
7z m-71 -90 c39 -39 70 -77 70 -86 0 -8 -10 -34 -21 -57 -29 -57 -99 -125
-262 -255 l-41 -33 -88 88 c-48 48 -88 91 -88 95 0 3 6 13 13 20 6 7 25 29 41
48 127 156 175 204 225 230 61 31 75 26 151 -50z m-419 -167 c-5 -10 -20 -29
-33 -43 -13 -14 -47 -53 -77 -88 -54 -63 -54 -63 -74 -43 -19 18 -19 21 -4 53
16 35 64 83 108 110 22 14 38 19 82 27 4 0 3 -7 -2 -16z m55 -198 c71 -71 84
-89 74 -100 -7 -8 -17 -15 -22 -15 -16 0 -168 157 -168 173 0 13 9 21 28 26 2
1 41 -37 88 -84z m193 -133 c-22 -45 -61 -92 -78 -92 -5 0 -14 -7 -21 -15 -7
-8 -22 -15 -35 -15 -26 0 -63 37 -49 49 5 4 50 41 99 82 50 41 92 79 95 84 3
6 6 -3 8 -18 2 -15 -7 -49 -19 -75z"/>
<path d="M613 703 c-27 -5 -63 -53 -63 -84 0 -24 63 -89 87 -89 15 0 64 29 75
45 16 21 8 85 -12 105 -11 11 -24 20 -29 20 -5 0 -15 2 -23 4 -7 2 -23 1 -35
-1z"/>
<path d="M178 264 c-15 -8 -31 -26 -34 -39 -3 -14 -9 -25 -13 -25 -10 0 -33
-99 -26 -110 6 -10 86 11 138 36 42 20 53 45 43 99 -6 33 -12 37 -66 50 -8 2
-27 -3 -42 -11z m72 -39 c22 -26 4 -59 -42 -77 -24 -10 -47 -18 -51 -18 -12 0
-8 25 13 68 22 45 56 57 80 27z"/>
</g>
</svg>
