<svg width="12" height="12" viewBox="0 0 12 12" fill="none" xmlns="http://www.w3.org/2000/svg">
<g id="IMAGE" clip-path="url(#clip0_1_34)">
<path id="Vector" d="M-1.30339e-06 7.88414C-0.0159236 7.74084 0.0398044 7.62939 0.167183 7.54979L11.3566 0.0862239C11.4202 0.0384572 11.4919 0.0145741 11.5715 0.0145741C11.6511 0.0145741 11.7228 0.0384572 11.7865 0.0862239C11.9059 0.165835 11.9576 0.289232 11.9417 0.456416L10.0788 11.6577C10.0469 11.7612 9.98325 11.8448 9.88772 11.9085C9.832 11.9403 9.77228 11.9563 9.7086 11.9563C9.66082 11.9563 9.61305 11.9483 9.5653 11.9324L5.94697 10.4874L5.1827 11.7652C5.10308 11.8926 4.99162 11.9563 4.84832 11.9563C4.70502 11.9563 4.59755 11.8926 4.5259 11.7652L3.15261 9.36491L0.238833 8.20657C0.0955322 8.14289 0.0159209 8.03542 -1.30339e-06 7.88414ZM1.17028 7.75279L3.42727 8.6723C3.44318 8.68822 3.4631 8.70016 3.48697 8.70813L3.5228 8.73202L9.81607 1.9969L1.17028 7.75279ZM3.8094 8.99473L4.84832 10.8099L10.8669 1.41175L3.8094 8.99473ZM5.99472 9.73512C6.09027 9.75103 6.16987 9.76696 6.23357 9.78287L9.39811 11.0726L10.8908 2.1402L5.99472 9.73512Z" fill="white"/>
</g>
<defs>
<clipPath id="clip0_1_34">
<rect width="12" height="12" fill="white"/>
</clipPath>
</defs>
</svg>
