<svg width="12" height="12" viewBox="0 0 12 12" fill="none" xmlns="http://www.w3.org/2000/svg">
<g id="IMAGE" clip-path="url(#clip0_1_384)">
<path id="Vector" d="M7.1213 5.91343L11.5517 1.48307C11.886 1.1487 11.886 0.647146 11.5517 0.312793C11.2173 -0.0215623 10.7157 -0.0215819 10.3814 0.312793L5.95104 4.74314L1.52067 0.312793C1.1863 -0.0215819 0.684744 -0.0215819 0.35039 0.312793C0.0160353 0.647165 0.0160157 1.14872 0.35039 1.48307L4.78075 5.91343L0.35039 10.3438C0.0160157 10.6782 0.0160157 11.1797 0.35039 11.5141C0.517567 11.6813 0.684763 11.7648 0.935539 11.7648C1.18632 11.7648 1.35349 11.6813 1.52069 11.5141L5.95104 7.08372L10.3814 11.5141C10.5486 11.6813 10.7994 11.7648 10.9666 11.7648C11.1337 11.7648 11.3845 11.6813 11.5517 11.5141C11.8861 11.1797 11.8861 10.6782 11.5517 10.3438L7.12135 5.91343H7.1213Z" fill="#ED6436"/>
</g>
<defs>
<clipPath id="clip0_1_384">
<rect width="12" height="12" fill="white"/>
</clipPath>
</defs>
</svg>
